<svg width="203" height="220" viewBox="0 0 203 220" fill="none" xmlns="http://www.w3.org/2000/svg">
<path d="M0.4375 72.8906V12.3438C0.4375 5.84961 5.26504 0.625 11.2656 0.625H67.2109C70.1887 0.625 72.625 3.26172 72.625 6.48438V26.0156C72.625 29.2383 70.1887 31.875 67.2109 31.875H29.3125V72.8906C29.3125 76.1133 26.8762 78.75 23.8984 78.75H5.85156C2.87383 78.75 0.4375 76.1133 0.4375 72.8906ZM130.375 6.48438V26.0156C130.375 29.2383 132.811 31.875 135.789 31.875H173.687V72.8906C173.687 76.1133 176.124 78.75 179.102 78.75H197.148C200.126 78.75 202.562 76.1133 202.562 72.8906V12.3438C202.562 5.84961 197.735 0.625 191.734 0.625H135.789C132.811 0.625 130.375 3.26172 130.375 6.48438ZM197.148 141.25H179.102C176.124 141.25 173.687 143.887 173.687 147.109V188.125H135.789C132.811 188.125 130.375 190.762 130.375 193.984V213.516C130.375 216.738 132.811 219.375 135.789 219.375H191.734C197.735 219.375 202.562 214.15 202.562 207.656V147.109C202.562 143.887 200.126 141.25 197.148 141.25ZM72.625 213.516V193.984C72.625 190.762 70.1887 188.125 67.2109 188.125H29.3125V147.109C29.3125 143.887 26.8762 141.25 23.8984 141.25H5.85156C2.87383 141.25 0.4375 143.887 0.4375 147.109V207.656C0.4375 214.15 5.26504 219.375 11.2656 219.375H67.2109C70.1887 219.375 72.625 216.738 72.625 213.516Z"/>
</svg>
