<svg width="16" height="20" viewBox="0 0 16 20" fill="none" xmlns="http://www.w3.org/2000/svg">
<path d="M8 20C7.45 20 6.97933 19.8043 6.588 19.413C6.196 19.021 6 18.55 6 18H10C10 18.55 9.80433 19.021 9.413 19.413C9.021 19.8043 8.55 20 8 20ZM4 17V15H12V17H4ZM4.25 14C3.1 13.3167 2.18767 12.4 1.513 11.25C0.837667 10.1 0.5 8.85 0.5 7.5C0.5 5.41667 1.22933 3.646 2.688 2.188C4.146 0.729334 5.91667 0 8 0C10.0833 0 11.854 0.729334 13.312 2.188C14.7707 3.646 15.5 5.41667 15.5 7.5C15.5 8.85 15.1627 10.1 14.488 11.25C13.8127 12.4 12.9 13.3167 11.75 14H4.25ZM4.85 12H11.15C11.9 11.4667 12.4793 10.8083 12.888 10.025C13.296 9.24167 13.5 8.4 13.5 7.5C13.5 5.96667 12.9667 4.66667 11.9 3.6C10.8333 2.53333 9.53333 2 8 2C6.46667 2 5.16667 2.53333 4.1 3.6C3.03333 4.66667 2.5 5.96667 2.5 7.5C2.5 8.4 2.70433 9.24167 3.113 10.025C3.521 10.8083 4.1 11.4667 4.85 12Z" fill="black"/>
</svg>
