<svg width="96" height="96" viewBox="0 0 96 96" fill="none" xmlns="http://www.w3.org/2000/svg">
<path d="M30.5 25.6L41.7 11.1C42.5 10.0333 43.45 9.25 44.55 8.75C45.65 8.25 46.8 8 48 8C49.2 8 50.35 8.25 51.45 8.75C52.55 9.25 53.5 10.0333 54.3 11.1L65.5 25.6L82.5 31.3C84.2333 31.8333 85.6 32.8167 86.6 34.25C87.6 35.6833 88.1 37.2667 88.1 39C88.1 39.8 87.9833 40.6 87.75 41.4C87.5167 42.2 87.1333 42.9667 86.6 43.7L75.6 59.3L76 75.7C76.0667 78.0333 75.3 80 73.7 81.6C72.1 83.2 70.2333 84 68.1 84C67.9667 84 67.2333 83.9 65.9 83.7L48 78.7L30.1 83.7C29.7667 83.8333 29.4 83.9167 29 83.95C28.6 83.9833 28.2333 84 27.9 84C25.7667 84 23.9 83.2 22.3 81.6C20.7 80 19.9333 78.0333 20 75.7L20.4 59.2L9.5 43.7C8.96667 42.9667 8.58333 42.2 8.35 41.4C8.11667 40.6 8 39.8 8 39C8 37.3333 8.48333 35.7833 9.45 34.35C10.4167 32.9167 11.7667 31.9 13.5 31.3L30.5 25.6ZM35.4 32.5L16 38.9L28.4 56.8L28 75.9L48 70.4L68 76L67.6 56.8L80 39.1L60.6 32.5L48 16L35.4 32.5Z" fill="black"/>
</svg>
